<svg width="50" height="42" viewBox="0 0 50 42" fill="none" xmlns="http://www.w3.org/2000/svg">
<path d="M48.6751 4.54541H27.2727V38.6363H48.6751C49.4394 38.6363 50 38.0797 50 37.4304V5.79773C50 5.102 49.4394 4.54541 48.6751 4.54541Z" fill="#BAE7FF"/>
<path d="M25 27.2864H44.4915V29.8313H25V27.2864ZM25 32.425H44.4915V35.0188H25V32.425ZM33.3686 9.32581C28.7606 9.32581 25 12.8005 25 17.0582C25 21.3159 28.7606 24.7905 33.3686 24.7905C37.9767 24.7905 41.7373 21.3159 41.7373 17.0582H33.3686V9.32581Z" fill="#F4F9FD"/>
<path d="M29.1843 39.3679C29.1843 40.6112 28.062 41.5532 26.8375 41.3376L1.65319 36.9033C0.697123 36.735 0 35.9044 0 34.9336V6.81722C0 5.84644 0.697121 5.01585 1.65319 4.84751L26.8375 0.413213C28.062 0.197619 29.1843 1.13963 29.1843 2.38291V39.3679Z" fill="#008DFF"/>
<path d="M8.75024 12.7273H16.1502C20.4669 12.7273 22.6252 14.5523 22.6252 18.2023C22.6252 21.8856 20.4502 23.7273 16.1002 23.7273H11.6752V30.5773H8.75024V12.7273ZM11.6752 15.2273V21.2273H15.9252C17.2086 21.2273 18.1586 20.994 18.7752 20.5273C19.3752 20.044 19.6752 19.269 19.6752 18.2023C19.6752 17.1523 19.3669 16.394 18.7502 15.9273C18.1669 15.4606 17.2252 15.2273 15.9252 15.2273H11.6752Z" fill="#F4F9FD"/>
</svg>
